<?xml version="1.0" standalone="no"?>
<!DOCTYPE svg PUBLIC "-//W3C//DTD SVG 20010904//EN"
 "http://www.w3.org/TR/2001/REC-SVG-20010904/DTD/svg10.dtd">
<svg version="1.0" xmlns="http://www.w3.org/2000/svg"
 width="260.000000pt" height="260.000000pt" viewBox="0 0 260.000000 260.000000"
 preserveAspectRatio="xMidYMid meet">
<metadata>
Created by potrace 1.14, written by Peter Selinger 2001-2017
</metadata>
<g transform="translate(0.000000,260.000000) scale(0.100000,-0.100000)"
fill="#000000" stroke="none">
<path d="M948 2083 c6 -2 18 -2 25 0 6 3 1 5 -13 5 -14 0 -19 -2 -12 -5z"/>
<path d="M830 2051 c-286 -107 -480 -344 -524 -641 -13 -85 -13 -120 -2 -238
12 -128 64 -258 146 -367 27 -36 50 -69 50 -73 0 -3 -27 20 -61 53 -143 140
-207 293 -214 506 -5 162 32 287 130 443 61 97 57 107 -6 14 -100 -146 -141
-277 -145 -458 -2 -104 2 -141 21 -216 69 -271 265 -484 537 -583 128 -47 191
-56 368 -55 167 2 280 26 415 88 165 76 329 215 399 338 22 39 14 31 -39 -37
-102 -133 -237 -226 -401 -278 -85 -27 -184 -45 -171 -31 4 4 19 10 33 11 41
6 164 53 224 86 189 103 325 271 379 467 24 85 24 88 12 75 -5 -6 -18 -40 -30
-77 -24 -73 -76 -159 -137 -227 -83 -92 -251 -188 -403 -230 -85 -24 -84 -16
4 19 115 45 228 132 300 231 41 54 99 171 108 214 4 17 -11 -6 -32 -50 -65
-136 -164 -237 -298 -304 -104 -52 -165 -65 -308 -65 -115 0 -139 3 -206 26
-150 53 -265 139 -348 263 -165 247 -136 571 71 786 154 160 387 237 596 196
91 -18 95 -5 5 16 -69 15 -240 16 -313 2 -129 -25 -285 -118 -385 -227 -64
-70 -63 -62 1 23 127 167 316 266 543 285 100 9 106 16 11 13 -136 -4 -303
-51 -425 -120 -169 -96 -299 -261 -347 -442 -32 -124 -35 -81 -3 58 51 225
216 402 469 502 100 39 79 43 -24 4z"/>
<path d="M2140 2062 c-25 -10 -84 -39 -131 -65 -47 -26 -97 -47 -110 -47 -23
1 -23 1 -5 15 20 15 16 45 -6 45 -7 0 -30 -11 -51 -24 -42 -26 -38 -26 -196 4
-51 9 -110 16 -130 15 -39 -3 -137 -42 -128 -51 3 -3 19 2 36 10 36 19 62 20
119 3 38 -12 42 -15 28 -27 -9 -7 -14 -15 -11 -18 3 -3 13 2 22 11 12 10 28
13 46 10 28 -5 35 -17 17 -28 -5 -3 -10 -11 -10 -17 0 -6 10 -2 23 9 17 16 27
19 46 12 23 -9 23 -10 6 -29 -10 -11 -13 -20 -8 -20 6 0 16 7 23 15 14 17 38
19 59 6 11 -7 0 -16 -39 -36 -30 -15 -66 -36 -81 -47 -20 -15 -36 -19 -65 -14
-136 21 -143 20 -101 -15 12 -10 16 -18 10 -19 -16 0 -384 -170 -483 -223
-144 -76 -390 -259 -390 -289 0 -6 19 7 42 29 77 70 171 130 343 218 181 93
208 100 61 15 -171 -98 -311 -209 -407 -323 l-53 -62 64 60 c35 33 70 66 78
73 23 21 190 132 210 139 9 4 -14 -20 -53 -52 -91 -77 -141 -127 -198 -197
-53 -66 -86 -123 -42 -73 75 84 158 163 249 234 185 144 209 159 536 328 49
26 88 48 86 50 -1 2 -22 -3 -44 -11 -47 -17 -55 -7 -16 19 37 24 23 29 -17 6
-46 -27 -157 -75 -144 -63 26 26 204 112 219 106 16 -6 16 -8 1 -24 -16 -17
-15 -19 11 -22 24 -2 30 -9 37 -40 5 -21 13 -38 18 -38 4 0 15 21 22 48 l14
47 114 57 c125 62 131 64 123 45 -2 -7 -1 -24 4 -38 8 -20 5 -27 -17 -41 -19
-13 -21 -18 -9 -18 9 0 20 5 24 11 4 8 10 6 17 -6 7 -14 4 -22 -14 -37 l-24
-19 26 6 c17 4 26 2 26 -7 1 -7 4 -27 8 -44 6 -26 3 -34 -20 -53 -42 -32 -14
-25 33 9 l41 30 -2 87 -2 87 40 20 c22 12 40 28 40 36 0 22 -34 24 -56 4 -10
-9 -20 -15 -20 -13 -14 42 -6 50 102 105 138 71 197 135 128 141 -13 1 -44 -6
-69 -15z"/>
<path d="M1981 1184 c0 -11 3 -14 6 -6 3 7 2 16 -1 19 -3 4 -6 -2 -5 -13z"/>
<path d="M1965 920 c-3 -5 -1 -10 4 -10 6 0 11 5 11 10 0 6 -2 10 -4 10 -3 0
-8 -4 -11 -10z"/>
</g>
</svg>
