<?xml version="1.0" encoding="utf-8"?>
<!-- Generator: Adobe Illustrator 26.0.0, SVG Export Plug-In . SVG Version: 6.00 Build 0)  -->
<svg version="1.1" xmlns="http://www.w3.org/2000/svg" xmlns:xlink="http://www.w3.org/1999/xlink" x="0px" y="0px"
	 viewBox="0 0 1920 1080" style="enable-background:new 0 0 1920 1080;" xml:space="preserve">




	<defs>
    <linearGradient id="myGradient" gradientTransform="rotate(90)">
      <stop offset="30%" stop-color="#ffffff" />
      <stop offset="80%" stop-color="#a0b6c6" />
    </linearGradient>
  </defs>
<style type="text/css">
	.st0{display:none;}
	.st1{display:inline;}
	.st2{fill:url('#myGradient')}
</style>
<g id="Layer_2" class="st0">
	<rect class="st1" width="1920" height="1080"/>
</g>
<g id="Layer_1">
	<path class="st2" d="M494.5,625c-0.92,0-1.83,0.03-2.74,0.07C479.07,591.71,446.79,568,408.94,568
		c-30.85,0-58.02,15.76-73.88,39.66c-4.68-11.53-16-19.66-29.22-19.66c-3.71,0-7.26,0.64-10.57,1.82c0.03-0.77,0.06-1.54,0.06-2.32
		c0-36.96-29.31-67.07-65.97-68.43c-17.25-44.5-56.37-75.43-100.69-79.07c-5.33-0.44-65.32-4.33-97.67,43
		c-22.35,32.7-16.98,68.59-15.16,78.17c-0.43-1.96-1.88-7-5.84-10.17c-5.88-3.92-10-2-10-2l0.04,84.37C0,712,0,739,0,739
		l493.49,1.29v-0.31c0.34,0.01,0.67,0.03,1.01,0.03c31.76,0,57.5-25.74,57.5-57.5C552,650.74,526.26,625,494.5,625z"/>
	<g>
		<path class="st2" d="M1897.92,400c-34.17,0-63.38,21.12-75.31,51c-4.53,0.94-8.82,2.53-12.78,4.66
			c-8.36-13.6-23.39-22.66-40.53-22.66c-20.48,0-37.94,12.94-44.63,31.08c-42.09,1.58-75.97,35.18-77.9,77.14
			c-6.63,3.89-12.53,8.89-17.45,14.74c-14.85-18.84-37.86-30.96-63.73-30.96c-29.36,0-55.06,15.59-69.29,38.92
			c-3.7-1.24-7.66-1.92-11.79-1.92c-19.8,0-35.98,15.53-36.99,35.06c-4.25-0.69-8.61-1.06-13.06-1.06
			c-22.76,0-43.32,9.38-58.05,24.48c-4.63-2.84-10.08-4.48-15.91-4.48c-16.84,0-30.5,13.66-30.5,30.5c0,0.23,0.01,0.45,0.02,0.68
			c-5.32,0.89-9.46,5.27-9.96,10.71c-2.76-0.58-5.62-0.89-8.56-0.89c-22.92,0-41.5,18.58-41.5,41.5c0,22.75,18.31,41.22,41,41.49
			V740h61h5h543V403.04C1912.98,401.06,1905.57,400,1897.92,400z"/>
		<polygon class="st2" points="1920,403 1920,403.04 1920,403.04 		"/>
	</g>
</g>
</svg>
