<svg id="Layer_1" data-name="Layer 1" xmlns="http://www.w3.org/2000/svg" viewBox="0 0 1199 423.02"><defs><style>.cls-1{fill:none;stroke-width:10px;}.cls-1,.cls-2{stroke:#000;stroke-miterlimit:10;}.cls-2{stroke-width:6px;}</style></defs><path class="cls-1" d="M372.61,773.6c103.25-205.38,263.88-349.47,491.58-381,301.31-41.72,551.47,118.11,682.2,392.77" transform="translate(-360 -374.96)"/><circle cx="13.45" cy="402.84" r="13.45"/><circle cx="1185.55" cy="409.57" r="13.45"/><path class="cls-2" d="M679.67,380.81,712,423.31,676.79,437.6,664,431.71s-6.74-2.94-12.35-.14l-5.62,2.8L665,453.09l-2.31,26,6.44-1.1s6.83-2.31,10.44-10.89,4.3-10.07,4.3-10.07l35.7-12.62,3.64,54.39,8-2.07s3.93-.85,5.8-13.84,7.9-47.82,7.9-47.82l17.22-7.15s9.66-4.53,13.35-8.76c4.12-4.71,3.29-12.16-9.35-12.07s-28.41,7.74-28.41,7.74l-33.65-29.06s-9.78-9.74-16.58-7.49S679.67,380.81,679.67,380.81Z" transform="translate(-360 -374.96)"/></svg>