<?xml version="1.0" encoding="utf-8"?>
<!-- Generator: Adobe Illustrator 26.0.0, SVG Export Plug-In . SVG Version: 6.00 Build 0)  -->
<svg version="1.1" id="Layer_1" xmlns="http://www.w3.org/2000/svg" xmlns:xlink="http://www.w3.org/1999/xlink" x="0px" y="0px"
	 viewBox="0 0 1920 1080" style="enable-background:new 0 0 1920 1080;" xml:space="preserve">


	   <defs>
    <linearGradient id="myGradient" gradientTransform="rotate(90)">
      <stop offset="20%" stop-color="#ffffff" />
      <stop offset="100%" stop-color="#a0b6c6" />
    </linearGradient>
  </defs>
<style type="text/css">
	.st0{fill:url('#myGradient')}
</style>
<g id="cl_x5C_">
	<path class="st0" d="M1920,403.04c-7.02-1.98-14.43-3.04-22.08-3.04c-34.17,0-63.38,21.12-75.31,51
		c-4.53,0.94-8.82,2.53-12.78,4.66c-8.36-13.6-23.39-22.66-40.53-22.66c-20.48,0-37.94,12.94-44.63,31.08
		c-42.09,1.58-75.97,35.18-77.9,77.14c-6.63,3.89-12.53,8.89-17.45,14.74c-14.85-18.84-37.86-30.96-63.73-30.96
		c-29.36,0-55.06,15.59-69.29,38.92c-3.7-1.24-7.66-1.92-11.79-1.92c-19.8,0-35.98,15.53-36.99,35.06
		c-4.25-0.69-8.61-1.06-13.06-1.06c-25.43,0-48.11,11.7-62.98,30H493.49c-11.27-35.93-44.86-62-84.55-62
		c-30.85,0-58.02,15.76-73.88,39.66c-4.68-11.53-16-19.66-29.22-19.66c-3.71,0-7.26,0.64-10.57,1.82c0.03-0.77,0.06-1.54,0.06-2.32
		c0-36.96-29.31-67.07-65.97-68.43c-17.25-44.5-56.37-75.43-100.69-79.07c-5.33-0.44-65.32-4.33-97.67,43
		c-23.05,33.73-16.61,70.86-15,79c0,0-1-7-6-11c-5.88-3.92-10-2-10-2l0.04,84.37C0,708,0,735,0,735l1920,5l-0.06-113.02"/>
</g>
</svg>
