<svg id="visual" viewBox="0 0 900 600" width="900" height="600" xmlns="http://www.w3.org/2000/svg" xmlns:xlink="http://www.w3.org/1999/xlink" version="1.1"><path d="M0 583L7.2 581.5C14.3 580 28.7 577 43 561.8C57.3 546.7 71.7 519.3 86 516.7C100.3 514 114.7 536 128.8 544.5C143 553 157 548 171.2 542.5C185.3 537 199.7 531 214 526.5C228.3 522 242.7 519 257 515.3C271.3 511.7 285.7 507.3 300 504.7C314.3 502 328.7 501 343 514.8C357.3 528.7 371.7 557.3 386 556.2C400.3 555 414.7 524 428.8 509.2C443 494.3 457 495.7 471.2 502.7C485.3 509.7 499.7 522.3 514 521.5C528.3 520.7 542.7 506.3 557 499.7C571.3 493 585.7 494 600 495.3C614.3 496.7 628.7 498.3 643 507.3C657.3 516.3 671.7 532.7 686 534.7C700.3 536.7 714.7 524.3 728.8 529.7C743 535 757 558 771.2 556.8C785.3 555.7 799.7 530.3 814 525.7C828.3 521 842.7 537 857 539.3C871.3 541.7 885.7 530.3 892.8 524.7L900 519L900 601L892.8 601C885.7 601 871.3 601 857 601C842.7 601 828.3 601 814 601C799.7 601 785.3 601 771.2 601C757 601 743 601 728.8 601C714.7 601 700.3 601 686 601C671.7 601 657.3 601 643 601C628.7 601 614.3 601 600 601C585.7 601 571.3 601 557 601C542.7 601 528.3 601 514 601C499.7 601 485.3 601 471.2 601C457 601 443 601 428.8 601C414.7 601 400.3 601 386 601C371.7 601 357.3 601 343 601C328.7 601 314.3 601 300 601C285.7 601 271.3 601 257 601C242.7 601 228.3 601 214 601C199.7 601 185.3 601 171.2 601C157 601 143 601 128.8 601C114.7 601 100.3 601 86 601C71.7 601 57.3 601 43 601C28.7 601 14.3 601 7.2 601L0 601Z" fill="#0066FF" stroke-linecap="round" stroke-linejoin="miter"></path></svg>